<?xml version="1.0" encoding="utf-8"?>
<!-- Generator: Adobe Illustrator 17.1.0, SVG Export Plug-In . SVG Version: 6.00 Build 0)  -->
<!DOCTYPE svg PUBLIC "-//W3C//DTD SVG 1.1//EN" "http://www.w3.org/Graphics/SVG/1.1/DTD/svg11.dtd">
<svg version="1.1" id="dragon-house-creative" xmlns="http://www.w3.org/2000/svg" xmlns:xlink="http://www.w3.org/1999/xlink" x="0px" y="0px"
	 viewBox="0 0 482 623.8" style="enable-background:new 0 0 482 623.8;" xml:space="preserve">
	<path class="dragon-animate" fill="#ffffff" stroke="#000000" stroke-width="2" d="M301.8,38.7c2.7,15.8-24,47.7-46.8,44.8c13-4.6,7.3-28,24.4-28.5c-1.6,5.9-9.7,5.3-8.1,14.3
		C286.6,64.2,294.3,51.6,301.8,38.7z"/>
	<path class="dragon-animate" fill="#ffffff" stroke="#000000" stroke-width="2" d="M320.1,71.3c-1.4,6-11.7,3.2-12.2,10.2c4.6,8.3,15,10.8,28.5,10.2c-0.2,5.2-7.9,2.9-8.1,8.1
		c0.4,5.7,3.5,8.7,10.2,8.1c-1.5,6-4.9,10-8.1,14.3c-13-16.9-24.3-35.5-46.8-42.8C288.9,70,305,71.2,320.1,71.3z"/>
	<path class="dragon-animate" fill="#ffffff" stroke="#000000" stroke-width="2" d="M309.9,148.7c-1.5-22.9-14.6-34.2-34.6-38.7c1.4-5.4,9.3-4.3,10.2-10.2c-3.8-3.9-3.7-1.6-2-8.1
		c-0.9-3-2.6,0.8-6.1,0c2.9-3,3-7.9-4.1-6.1C295.8,77.3,340.3,122.8,309.9,148.7z"/>
	<path class="dragon-animate" fill="#ffffff" stroke="#000000" stroke-width="2" d="M216.2,99.8c-3.2-5.3,10.6-11.1,16.3-14.3c1.2,10.5,8.2,2.5,12.2,10.2c-0.6,4.2-5.5,4-6.1,8.1
		C237.2,92.5,222.2,91.2,216.2,99.8z"/>
	<path class="dragon-animate" fill="#ffffff" stroke="#000000" stroke-width="2" d="M224.4,97.8c2,0,4.1,0,6.1,0c0.6,5.3-0.7,8.8-6.1,8.1C224.4,103.2,224.4,100.5,224.4,97.8z"/>
	<path class="dragon-animate" fill="#ffffff" stroke="#000000" stroke-width="2" d="M250.9,114.1c-2.6,10.3-10.9,14.9-16.3,22.4c-5.4-6.2,4.9-14,6.1-20.4c-4.9-11.8-19.8,5.5-24.4,0
		C220.3,108.3,246.7,103.1,250.9,114.1z"/>
	<path class="dragon-animate" fill="#ffffff" stroke="#000000" stroke-width="2" d="M346.6,112c5.3,4.8-0.9,15.3-2,20.4c4.3,4.8,7.4-8.8,14.3-8.1c-2.5,4.9-5,9.9-6.1,16.3c1.8,5.5,4.9-4.3,6.1-6.1
		c4.9,7.1-5.4,16.2-8.1,22.4c-7.2-6.4-10.1-17-26.5-14.3c-1.3-7.4,4.4-7.8,4.1-14.3c4.1,8.1,7.6,0.5,8.1-6.1c2.4,0.3,1.7,3.7,2,6.1
		C342.3,124.1,345,118.6,346.6,112z"/>
	<path class="dragon-animate" fill="#ffffff" stroke="#000000" stroke-width="2" d="M208.1,114.1c9.7,1.1,8,13.8,16.3,16.3C218.9,133.1,208.8,123,208.1,114.1z"/>
	<path class="dragon-animate" fill="#ffffff" stroke="#000000" stroke-width="2" d="M232.5,116.1c4.9,3.7,0.5,15.3-6.1,14.3C227,124.1,230.8,121.2,232.5,116.1z"/>
	<path class="dragon-animate" fill="#ffffff" stroke="#000000" stroke-width="2" d="M279.4,118.1c12.1-0.5,15.3,7.8,22.4,12.2C292.7,136,278.7,129.1,279.4,118.1z"/>
	<path class="dragon-animate" fill="#ffffff" stroke="#000000" stroke-width="2" d="M208.1,120.2c-0.3,6.5-4.6,9-4.1,16.3c22.1,26.2,54.8-28.1,77.4-2c0,7.5-0.9,14-8.1,14.3
		c5.3-3.6,5.3-14.7,0-18.3c-27.8-1.9-50.9,32.3-73.3,10.2C199.7,130.8,200.4,122,208.1,120.2z"/>
	<path class="dragon-animate" fill="#ffffff" stroke="#000000" stroke-width="2" d="M208.1,126.3c4.7,1.4,5.5,6.8,10.2,8.1C215,139.5,204.9,134.3,208.1,126.3z"/>
	<path class="dragon-animate" fill="#ffffff" stroke="#000000" stroke-width="2" d="M287.5,136.5c6.4-3.6,20,3,18.3,14.3C292.8,152.9,294.1,140.8,287.5,136.5z"/>
	<path class="dragon-animate" fill="#ffffff" stroke="#000000" stroke-width="2" d="M234.6,144.6c4.1,10.8-19.5,39.9-30.5,22.4c-1.3-7.9,7.7,1,14.3-2C227.1,161.6,227.4,149.6,234.6,144.6z"/>
	<path class="dragon-animate" fill="#ffffff" stroke="#000000" stroke-width="2" d="M289.5,146.6c5.4,4.1,12,7,10.2,18.3C287.6,167.6,289.6,156.1,289.5,146.6z"/>
	<path class="dragon-animate" fill="#ffffff" stroke="#000000" stroke-width="2" d="M342.5,150.7c-0.3,2.4,0.4,3.6,2,4.1c2.7,31.9-30.8,27.6-34.6,52.9c-4.2-1.3-0.6-10.3-8.1-8.1
		C308.1,177.8,311.6,134.8,342.5,150.7z"/>
	<path class="dragon-animate" fill="#ffffff" stroke="#000000" stroke-width="2" d="M197.9,152.7c2.6-5.1,11.4,0.6,12.2,4.1c7.6,0.2,6.2-8.8,16.3-6.1c0.1,14-20.4,8.7-24.4,8.1
		C195.1,158,207.4,151,197.9,152.7z"/>
	<path class="dragon-animate" fill="#ffffff" stroke="#000000" stroke-width="2" d="M281.4,158.9c6.3,3.9,9.4,14.9,6.1,22.4C276.1,180,280.6,168.2,281.4,158.9z"/>
	<path class="dragon-animate" fill="#ffffff" stroke="#000000" stroke-width="2" d="M303.8,162.9c2.7,19.7-14,37.6-26.5,48.9c-6.4,0.3-0.9-11.4-10.2-8.1C278.4,189.1,296.8,181.7,303.8,162.9z"/>
	<path class="dragon-animate" fill="#ffffff" stroke="#000000" stroke-width="2" d="M275.3,165c2.9,6.8,4.8,17.8,2,24.4C266.7,190.1,270.7,167.7,275.3,165z"/>
	<path class="dragon-animate" fill="#ffffff" stroke="#000000" stroke-width="2" d="M263.1,173.1c7.4-0.5,4.6,19.7,2,22.4C254.8,192.5,261.3,180.4,263.1,173.1z"/>
	<path class="dragon-animate" fill="#ffffff" stroke="#000000" stroke-width="2" d="M252.9,181.3c3.9,4,2.7,20.2,0,24.4C240.8,204.7,248.3,184.3,252.9,181.3z"/>
	<path class="dragon-animate" fill="#ffffff" stroke="#000000" stroke-width="2" d="M240.7,187.4c3.5,11.1,5.6,17.7,0,26.5C228.5,211.2,236.9,192.5,240.7,187.4z"/>
	<path class="dragon-animate" fill="#ffffff" stroke="#000000" stroke-width="2" d="M126.6,191.4c6.7,1.3,3.5,9.4,12.2,4.1c-0.6,4.7,0.3,7.8,2,10.2c4.6,0.6,7.7-0.5,8.1-4.1
		c5.7,3.5-8.7,10.3,6.1,8.1c-3,9.9-26.5-0.7-22.4,16.3c-8-5-9.9-3.5-20.4-6.1C112.4,205.7,130.6,209.7,126.6,191.4z"/>
	<path class="dragon-animate" fill="#ffffff" stroke="#000000" stroke-width="2" d="M159.2,205.7c5.1-6,9.5-18,20.4-12.2c2.6,12.7-6.5,13.8-8.1,22.4c-6.5-4.7,4.3-9.1,2-16.3
		C164.3,197.2,168.9,208.6,159.2,205.7z"/>
	<path class="dragon-animate" fill="#ffffff" stroke="#000000" stroke-width="2" d="M230.5,191.4c-0.2,6.4,4.7,23-2,28.5C215.3,215.4,226.6,197.5,230.5,191.4z"/>
	<path class="dragon-animate" fill="#ffffff" stroke="#000000" stroke-width="2" d="M218.3,201.6c-0.7,5.8,3.5,22.9,0,30.5C206.2,230.4,212.7,205,218.3,201.6z"/>
	<path class="dragon-animate" fill="#ffffff" stroke="#000000" stroke-width="2" d="M165.3,205.7c2.3,3.8-1,19.3-6.1,22.4c-6.6,0.5-4.3-7.9-10.2-8.1C152.6,213.4,163,213.6,165.3,205.7z"/>
	<path class="dragon-animate" fill="#ffffff" stroke="#000000" stroke-width="2" d="M265.1,205.7c7.6,0.5,6.2,10.1,12.2,12.2c6.2,0.1,10.4-1.8,12.2-6.1c3,13.6-19.2,20.5-28.5,8.1
		C262.7,215.5,266.3,213,265.1,205.7z"/>
	<path class="dragon-animate" fill="#ffffff" stroke="#000000" stroke-width="2" d="M297.7,205.7c6.8-1.4,7.4,3.4,8.1,8.1c11.3,2.5,11.8-5.8,20.4-6.1c-2.5,5.7,6.6,5.7,4.1,0
		c7.9,8.1-4.8,12.8-6.1,18.3c-8.1-6-19.3-0.8-30.5-6.1C295.3,215.5,298.9,213,297.7,205.7z"/>
	<path class="dragon-animate" fill="#ffffff" stroke="#000000" stroke-width="2" d="M259,207.7c-1.1,5.7-3,10.6-4.1,16.3c-8.9,0.6-12.9,6.1-20.4,8.1C239.3,220.6,245.5,210.5,259,207.7z"/>
	<path class="dragon-animate" fill="#ffffff" stroke="#000000" stroke-width="2" d="M204,213.8c2.6,1,6.5,25.7,0,28.5C191.9,239.1,200.4,219.7,204,213.8z"/>
	<path class="dragon-animate" fill="#ffffff" stroke="#000000" stroke-width="2" d="M336.4,222c29.6-6.1,48,25.7,26.5,40.7c2-5.6,4.8-20-2-22.4c-6.3,16.5-11.1,36.7-26.5,48.9
		C342.9,275.1,362.2,238.9,336.4,222z"/>
	<path class="dragon-animate" fill="#ffffff" stroke="#000000" stroke-width="2" d="M118.5,224c0,5.4,0,10.9,0,16.3c-3.2-4.2-6.6-8.3-8.1-14.3C114,226.3,114.6,223.6,118.5,224z"/>
	<path class="dragon-animate" fill="#ffffff" stroke="#000000" stroke-width="2" d="M259,224c2,0,4.1,0,6.1,0c0.3,7.9-1.6,17.9,4.1,20.4C261.3,250.9,252.3,232.4,259,224z"/>
	<path class="dragon-animate" fill="#ffffff" stroke="#000000" stroke-width="2" d="M122.6,226.1c2,0,4.1,0,6.1,0c-2,10.1,5.4,10.9,6.1,18.3C127.2,241.8,123.3,235.5,122.6,226.1z"/>
	<path class="dragon-animate" fill="#ffffff" stroke="#000000" stroke-width="2" d="M228.5,226.1c5.2-0.1,2.5,1.5,2,4.1c-19,17.7-41.3,32-40.7,69.2C181.3,261.7,208.7,242.3,228.5,226.1z"/>
	<path class="dragon-animate" fill="#ffffff" stroke="#000000" stroke-width="2" d="M326.2,226.1c9.5,3.7,0.6,21.6-6.1,22.4C325.5,244.3,322.6,231.9,326.2,226.1z"/>
	<path class="dragon-animate" fill="#ffffff" stroke="#000000" stroke-width="2" d="M159.2,230.1c3.3-0.6,3.5,1.9,6.1,2c-2.3,7.9-4.2,16.1-14.3,16.3C155.1,243.7,157.8,237.5,159.2,230.1z"/>
	<path class="dragon-animate" fill="#ffffff" stroke="#000000" stroke-width="2" d="M318.1,234.2c-7.6,22-30.8,25.5-48.9,42.8c-19.5,18.6-30,47.9-67.2,46.8C255.6,310.3,262,238.6,318.1,234.2z"/>
	<path class="dragon-animate" fill="#ffffff" stroke="#000000" stroke-width="2" d="M179.6,242.3c5.4,5.4,8.1,22.3,6.1,28.5C174.2,270.6,177,250.5,179.6,242.3z"/>
	<path class="dragon-animate" fill="#ffffff" stroke="#000000" stroke-width="2" d="M171.4,256.6c2,10.1,13.6,23.5,6.1,30.5C165.9,285.6,169.5,266.1,171.4,256.6z"/>
	<path class="dragon-animate" fill="#ffffff" stroke="#000000" stroke-width="2" d="M324.2,256.6c4,1.4-0.5,11.4,4.1,12.2c-21.5,2.2-36.8,10.7-42.8,28.5c-7.3,1.2-9.9-2.4-14.3-4.1
		c0,5.4,0.8,11.6-2,14.3c-6.7,1.4-13,3.3-20.4,4.1C267.5,286.9,278.9,254.8,324.2,256.6z"/>
	<path class="dragon-animate" fill="#ffffff" stroke="#000000" stroke-width="2" d="M165.3,277c2.2,10.7,11.4,14.4,10.2,28.5C164.5,301.7,163.7,288.2,165.3,277z"/>
	<path class="dragon-animate" fill="#ffffff" stroke="#000000" stroke-width="2" d="M179.6,299.4c9.9,14.6,12.8,36.1,40.7,32.6c-5.8,7.1-15.8,10-16.3,22.4C185.9,346,182.5,322.9,179.6,299.4z"/>
	<path class="dragon-animate" fill="#ffffff" stroke="#000000" stroke-width="2" d="M163.3,301.4c3.3,9.6,14.7,11.1,14.3,24.4C164.6,326.8,161.1,309,163.3,301.4z"/>
	<path class="dragon-animate" fill="#ffffff" stroke="#000000" stroke-width="2" d="M350.6,319.7c-0.8-4.9,3.7-4.4,2-10.2c4.8,0,6,3.5,12.2,2c1.5,6.3-5.6,3.9-4.1,10.2
		C355.9,322.6,356.4,318,350.6,319.7z"/>
	<path class="dragon-animate" fill="#ffffff" stroke="#000000" stroke-width="2" d="M366.9,315.7c4.3,1.8,6.2,6,6.1,12.2C371.4,323.2,361.3,321.5,366.9,315.7z"/>
	<path class="dragon-animate" fill="#ffffff" stroke="#000000" stroke-width="2" d="M364.9,325.8c0.1,6.2-7.3,4.9-6.1,12.2c-5.7,0.3-5.1-5.8-8.1-8.1c-6.5,5-6.6,16.5-12.2,22.4
		c-2.7-6.1,0.3-24.1,4.1-30.5C351.5,325.7,357.5,320.2,364.9,325.8z"/>
	<path class="dragon-animate" fill="#ffffff" stroke="#000000" stroke-width="2" d="M165.3,323.8c5.9,5,21.5,11.1,16.3,20.4C172.1,341.5,168.5,332.8,165.3,323.8z"/>
	<path class="dragon-animate" fill="#ffffff" stroke="#000000" stroke-width="2" d="M362.9,331.9c7.2,0.3,5.8,9.1,8.1,14.3C365,343.3,359.6,338.6,362.9,331.9z"/>
	<path class="dragon-animate" fill="#ffffff" stroke="#000000" stroke-width="2" d="M275.3,342.1c-18.3,23.4-59.6,22.4-67.2,59.1C206.1,369.1,243.5,320.7,275.3,342.1z"/>
	<path class="dragon-animate" fill="#ffffff" stroke="#000000" stroke-width="2" d="M332.3,334c-4.1,18.6,8.3,29.2,2,44.8c-10.8-37.1-59.6,12.4-18.3,18.3c-1.2,6.9-18.7,5-20.4,0
		c-6,4.9-8.9,12.9-18.3,14.3c3.1-5.8,9-8.7,10.2-16.3c-5.1-2.3-11.6,11.4-20.4,12.2c11.9-13.9,25-26.6,28.5-48.9
		C314.1,356.5,326.7,348.7,332.3,334z"/>
	<path class="dragon-animate" fill="#ffffff" stroke="#000000" stroke-width="2" d="M352.7,340.1c3,9.3-0.9,15.7-2,28.5C331.8,363.2,338.4,347.1,352.7,340.1z"/>
	<path class="dragon-animate" fill="#ffffff" stroke="#000000" stroke-width="2" d="M191.8,356.4c-6.9,4.3-14.6-5-18.3-10.2C177.4,343.7,191.7,348.3,191.8,356.4z"/>
	<path class="dragon-animate" fill="#ffffff" stroke="#000000" stroke-width="2" d="M200,360.5c0.8,10.6-17.7,6.1-16.3-2C187.6,363.3,195.1,354.7,200,360.5z"/>
	<path class="dragon-animate" fill="#ffffff" stroke="#000000" stroke-width="2" d="M238.6,370.6c-23.1,32.7-7.3,94.4,46.8,79.4c-22.1,15.5-59,10.8-71.3-12.2C200.8,412.7,217.3,382.5,238.6,370.6
		z"/>
	<path class="dragon-animate" fill="#ffffff" stroke="#000000" stroke-width="2" d="M342.5,370.6c4.3,1.2,5.8,5,12.2,4.1c-3.2,4.9-5.6,10.7-12.2,12.2c-0.9-1.8-1.8-3.6-4.1-4.1
		C337.9,376.9,343,376.6,342.5,370.6z"/>
	<path class="dragon-animate" fill="#ffffff" stroke="#000000" stroke-width="2" d="M373,378.8c8.9,0.2-3.8,8.2-4.1,12.2c-8.5,1-13.8-1.1-18.3-4.1c1.1-1.6,2.1-3.3,2-6.1
		C358.9,380.9,370.8,387,373,378.8z"/>
	<path class="dragon-animate" fill="#ffffff" stroke="#000000" stroke-width="2" d="M238.6,492.8c27.2-4.5,80.4-24.1,50.9-52.9c-17.7,3.6-43.8,8.4-48.9-10.2c17.2,14.5,42.6-16.7,65.2,0
		C341.8,456.3,278.8,502.2,238.6,492.8z"/>
	<path class="dragon-animate" fill="#ffffff" stroke="#000000" stroke-width="2" d="M185.7,523.4c-7.3-0.5-16.3,14.9-16.3,28.5c-4.6-2.8-0.8-14.2-2-20.4c-13.9,6.8-10.8,34.4-6.1,48.9
		c-13.5-11.2-9-46.9,2-57c-1.8-5.5-7.5,1.7-8.1,4.1c-1.2-12.7,17-23.7,28.5-30.5c-3.4-4.6-13.6,1.2-16.3,4.1
		c0-10.9,23.9-15.5,38.7-18.3c-2.5-2.9-7-3.9-12.2-4.1c12.2-8.1,26.1-0.6,40.7,0c-3.8-3.6-8.2-6.7-16.3-6.1
		c16.7-5.8,30.1,9.2,52.9,4.1c-13.1,14.7-47.1,8.5-63.1,20.4c20.1,5.4,44.2,3.5,63.1-2c-14.7,14.5-42.8,15.5-52.9,34.6
		c-6-4.1,2.8-10.7,4.1-14.3c-8,0.1-11.2,5.1-16.3,8.1c-6.1-4.3,5.8-7.6,6.1-12.2c-14.4,3.3-23.2,12.1-28.5,24.4
		C178.7,533.7,182.8,524.1,185.7,523.4z"/>
	<path class="dragon-animate" fill="#ffffff" stroke="#000000" stroke-width="2" d="M277.3,20.4c-1.4,10.8-23.7,18.4-24.4,36.7c3,4.8,10.9-2.5,12.2-6.1c0.2,10.4-14.2,23.7-30.5,24.4
		C243,51.2,256.7,32.4,277.3,20.4z"/>
	<path class="dragon-animate" fill="#ffffff" stroke="#000000" stroke-width="2" d="M232.5,97.8c0,2.7,0,5.4,0,8.1c-5.4,2.1-12.5,2.4-20.4,2C217.9,104.1,223.7,92,232.5,97.8z M224.4,105.9
		c5.4,0.6,6.7-2.8,6.1-8.1c-2,0-4.1,0-6.1,0C224.4,100.5,224.4,103.2,224.4,105.9z"/>
	<path class="dragon-animate" fill="#ffffff" stroke="#000000" stroke-width="2" d="M263.1,95.7c2.7,4.5,11-2.4,16.3-2c-1.6,5.2-8.4,5.2-12.2,8.1c0.7,4.3,8.9-0.3,10.2-2
		c3.7,3.8-8.5,9.1-14.3,10.2c0.6,4.2,5.4,4.1,8.1,6.1c-0.3,4.5-8.6,0.9-12.2,2c5.9,9.5-9.7,5.5-12.2,12.2c-3.8-4,9.6-7.9,8.1-16.3
		c-3-6.9-13.3-15-4.1-22.4c-0.5-5.2-3.5,2.8-8.1,0c1.1-3,3-5.1,4.1-8.1c-8.7,3.1-8.9,4.3-14.3-2c-11.2,3.7-14.5,15.3-26.5,18.3
		c0.4-25.4,43.1-28.8,50.9-8.1c6.6,1.2,9.5-1.4,14.3-2C269.5,92.6,268.2,96.1,263.1,95.7z"/>
	<path class="dragon-animate" fill="#ffffff" stroke="#000000" stroke-width="2" d="M187.7,85.6c5.2,0.5-2.8,3.5,0,8.1c5.2-1.6,5.2-8.4,8.1-12.2c2.5,0.8-0.4,15,4.1,4.1c4.4-0.3,0.9,7.2,2,10.2
		c-1.8,1.6-4.6,2.2-8.1,2c0.6,1.8,5.5,8.9,6.1,4.1c4.2,2.4-5.3,8.1-10.2,8.1c-1.7-5.8,2.9-5.3,2-10.2c-5.4-0.6-1.6,7.9-8.1,6.1
		C182.8,96.9,184.2,90.2,187.7,85.6z"/>
	<path class="dragon-animate" fill="#ffffff" stroke="#000000" stroke-width="2" d="M185.7,114.1c10.5,0.9,16-11.5,22.4-8.1c-3.3,7.5-10.8,19.5-20.4,14.3c-5.1,0.9,2,5.8,6.1,4.1
		c-0.3,4.5-5.1,4.4-10.2,4.1C182,121.3,186.7,120.5,185.7,114.1z"/>
	<path class="dragon-animate" fill="#ffffff" stroke="#000000" stroke-width="2" d="M159.2,165c20.3-2.9-4,29.5-16.3,12.2c-2-28.5,15.4-37.5,30.5-48.9c8.3,0.6,11.2,6.5,22.4,4.1
		c2.8,1.2,0.3,7.8,4.1,8.1c-8.8,0.3-10.5,2.5-18.3,6.1c-2.4-0.3-1.7-3.7-2-6.1c-2.1,1.3-2.1,4.7-6.1,4.1c6.6-12.5-6.4,4.6-4.1-8.1
		c-11.3,8.3-23.3,16.1-22.4,36.7c4.4,7.6,16.3,2.4,18.3-4.1C164.4,166.5,162.7,164.9,159.2,165z"/>
	<path class="dragon-animate" fill="#ffffff" stroke="#000000" stroke-width="2" d="M208.1,183.3c-3.6,1.8-7.1,7.6-6.1-2c-1.6,1.8-5.6,1.2-6.1,4.1c-4.7-1.6,3.5-7.1,4.1-10.2
		c31.3,11.1,31.4-25.3,48.9-34.6c-2,7.6-3.5,15.5-10.2,18.3c0.3,4.5,5.1,4.4,10.2,4.1c-2,4.1-7.8,4.4-14.3,4.1
		c1.8,3.6,4.6,6.3,8.1,8.1c-2.5,6.2-7-2.2-12.2,0c-4.1-0.6,0.4,5.9,2,6.1c-2.5,6.2-7.8-1.4-10.2-2c-4.4-0.3-0.9,7.2-2,10.2
		c-2.5-0.9-4.2-2.6-4.1-6.1c-2.8,3.3-5.8,6.4-8.1,10.2C203.6,193.2,210.7,188.3,208.1,183.3z"/>
	<path class="dragon-animate" fill="#ffffff" stroke="#000000" stroke-width="2" d="M195.9,171.1c4.2,3.6-6.9,9.3-4.1,18.3c0.9,4,5.8-3.3,4.1,6.1c4.7-0.6,9.5-5.1,8.1,4.1
		c5.1,0.3,8.5-1.1,10.2-4.1c2.4,7.2-10.3,16.9-20.4,18.3c-3.2-11.1-6.1-22.4-18.3-24.4c0-5.4,0-10.9,0-16.3c9.8,9.9,6-5.8,16.3-6.1
		c-2.4,3-2.5,8.3-6.1,10.2C187.4,181.3,192.8,172.3,195.9,171.1z"/>
	<path class="dragon-animate" fill="#ffffff" stroke="#000000" stroke-width="2" d="M179.6,232.2c-1.4-4.5-6.8,3.9-8.1,6.1c-3.2-3.3,7.2-10.3,8.1-16.3c-0.6-4.3-6.3,2.9-8.1,4.1
		c-1.2-6,13.8-13.3,12.2-26.5c11.4,13.9-2.1,33.2-8.1,42.8C170.8,240.7,179,235.2,179.6,232.2z"/>
	<path class="dragon-animate" fill="#ffffff" stroke="#000000" stroke-width="2" d="M295.7,222c14.5,3.6-2.8,15.6-8.1,18.3C284.7,236.7,294.1,227.9,295.7,222z"/>
	<path class="dragon-animate" fill="#ffffff" stroke="#000000" stroke-width="2" d="M193.8,226.1c-1.8,4.2,4.6,22.1,0,28.5C181.8,253.1,188.6,229.2,193.8,226.1z"/>
	<path class="dragon-animate" fill="#ffffff" stroke="#000000" stroke-width="2" d="M248.8,230.1c-7,18.5-52.4,34.3-40.7,65.2c-10-3.1-9.6,10.1-6.1,14.3c12.5,1.7,16.5-5.2,16.3-16.3
		c8.2,6.2,10.7-7.4,10.2-16.3c2.7,0.7,3.2,3.6,6.1,4.1c4.5-4.4,6.4-11.2,6.1-20.4c4.5-1.1,2.9,3.9,6.1,4.1c4.6-4.2,6.4-11.3,8.1-18.3
		c3.2,2.3,10.9,10.6,16.3,4.1c-17.5,18.4-34.1,55.5-65.2,67.2C173.1,283.6,222.6,243.9,248.8,230.1z"/>
	<path class="dragon-animate" fill="#ffffff" stroke="#000000" stroke-width="2" d="M334.3,236.2c22.4,12.7-5.9,56.4-12.2,52.9c5.9-6.6,16.7-26.7,6.1-36.7C329.6,246.4,336.1,245.4,334.3,236.2z"
		/>
	<path class="dragon-animate" fill="#ffffff" stroke="#000000" stroke-width="2" d="M234.6,327.9c-0.6-2.8-5.1-1.7-8.1-2c11.1-14,43.5-6.7,50.9-24.4c12.6,3.2,23.2,4.2,36.7,2
		c-13.5,7.5-32.1,10-46.8,16.3c32.2-5.8,79.9-13.8,89.6-48.9c2.8,38.5-23.3,48-61.1,50.9c-39.7,3.1-89.3,29.3-95.7,71.3
		c-5.1,33.4,8.3,52.8,28.5,65.2c-11.4-0.8-33.3-8.7-32.6-28.5c-4.1-0.7-6.4,0.4-6.1,4.1c-7.8-17.3,5.6-31,8.1-44.8
		c-2.9-0.2-5.8-0.3-6.1,2C195.9,367.9,214.9,342.2,234.6,327.9z"/>
	<path class="dragon-animate" fill="#ffffff" stroke="#000000" stroke-width="2" d="M330.3,323.8c-2.4,9.9-20.3,21.8-34.6,26.5c-12.4,16.8-13.3,45-34.6,52.9c4.8-6,10.2-11.5,14.3-18.3
		c-1.1-1.6-2.1-3.3-2-6.1c-8-1.2-10.6,3-14.3,6.1c-3.8-4,9.6-7.9,8.1-16.3c0.6-5.4-11.4,1.9-8.1-6.1c19.2,2,26.2-17.4,18.3-30.5
		c7.3-3.6,22,0.3,28.5-4.1c6.7,2-2.3,4-2,6.1C310.9,336.9,324.9,329.3,330.3,323.8z"/>
</svg>
